<svg id="Layer_1" data-name="Layer 1" xmlns="http://www.w3.org/2000/svg" viewBox="0 0 24 24" stroke-width="1.5" width="24" height="24" color="#000000"><defs><style>.cls-637b88e7f95e86b59c57a1e1-1{fill:none;stroke:currentColor;stroke-miterlimit:10;}</style></defs><polyline class="cls-637b88e7f95e86b59c57a1e1-1" points="18.68 7.23 18.68 22.5 5.32 22.5 5.32 7.23"></polyline><path class="cls-637b88e7f95e86b59c57a1e1-1" d="M18.68,15.82H22.5a0,0,0,0,1,0,0v3.82a2.86,2.86,0,0,1-2.86,2.86h-1a0,0,0,0,1,0,0V15.82A0,0,0,0,1,18.68,15.82Z"></path><path class="cls-637b88e7f95e86b59c57a1e1-1" d="M1.5,15.82h1a2.86,2.86,0,0,1,2.86,2.86V22.5a0,0,0,0,1,0,0H1.5a0,0,0,0,1,0,0V15.82A0,0,0,0,1,1.5,15.82Z" transform="translate(6.82 38.32) rotate(180)"></path><path class="cls-637b88e7f95e86b59c57a1e1-1" d="M7.23,1.5h9.55a2.86,2.86,0,0,1,2.86,2.86v0a4.77,4.77,0,0,1-4.77,4.77H9.14A4.77,4.77,0,0,1,4.36,4.36v0A2.86,2.86,0,0,1,7.23,1.5Z"></path><line class="cls-637b88e7f95e86b59c57a1e1-1" x1="9.14" y1="12" x2="9.14" y2="9.14"></line><line class="cls-637b88e7f95e86b59c57a1e1-1" x1="14.86" y1="12" x2="14.86" y2="9.14"></line><rect class="cls-637b88e7f95e86b59c57a1e1-1" x="5.32" y="14.86" width="13.36" height="7.64"></rect><line class="cls-637b88e7f95e86b59c57a1e1-1" x1="8.18" y1="18.68" x2="15.82" y2="18.68"></line></svg>