<svg id="Layer_1" data-name="Layer 1" xmlns="http://www.w3.org/2000/svg" viewBox="0 0 24 24" stroke-width="1.5" width="24" height="24" color="#000000"><defs><style>.cls-637b88e7f95e86b59c57a1f3-1{fill:none;stroke:currentColor;stroke-miterlimit:10;}</style></defs><path class="cls-637b88e7f95e86b59c57a1f3-1" d="M22.5,12A10.5,10.5,0,0,1,6.15,20.72a10.32,10.32,0,0,1-2.87-2.87A10.5,10.5,0,0,1,17.85,3.28a10.32,10.32,0,0,1,2.87,2.87A10.47,10.47,0,0,1,22.5,12Z"></path><path class="cls-637b88e7f95e86b59c57a1f3-1" d="M17.85,3.28,19,2.09A2,2,0,0,1,21.91,5L20.72,6.15"></path><polygon class="cls-637b88e7f95e86b59c57a1f3-1" points="7.71 16.3 13.91 13.91 16.3 7.71 10.09 10.09 7.71 16.3"></polygon><line class="cls-637b88e7f95e86b59c57a1f3-1" x1="10.09" y1="10.09" x2="13.91" y2="13.91"></line><line class="cls-637b88e7f95e86b59c57a1f3-1" x1="12" y1="3.41" x2="12" y2="5.32"></line><line class="cls-637b88e7f95e86b59c57a1f3-1" x1="12" y1="18.68" x2="12" y2="20.59"></line><line class="cls-637b88e7f95e86b59c57a1f3-1" x1="20.59" y1="12" x2="18.68" y2="12"></line><line class="cls-637b88e7f95e86b59c57a1f3-1" x1="5.32" y1="12" x2="3.41" y2="12"></line></svg>