<svg xmlns="http://www.w3.org/2000/svg" viewBox="0 0 24 24" stroke-width="1.5" width="24" height="24" color="currentColor"><defs><style>.cls-637b7068f95e86b59c579dfd-1{fill:none;stroke:currentColor;stroke-miterlimit:10;}</style></defs><path class="cls-637b7068f95e86b59c579dfd-1" d="M3.41,12H20.59a1.91,1.91,0,0,1,1.91,1.91v3.82a0,0,0,0,1,0,0H1.5a0,0,0,0,1,0,0V13.93A1.91,1.91,0,0,1,3.41,12Z"></path><path class="cls-637b7068f95e86b59c579dfd-1" d="M4.36,4.39H19.64A1.91,1.91,0,0,1,21.55,6.3V12a0,0,0,0,1,0,0H2.45a0,0,0,0,1,0,0V6.3A1.91,1.91,0,0,1,4.36,4.39Z"></path><path class="cls-637b7068f95e86b59c579dfd-1" d="M7.23,8.2h2.86A1.91,1.91,0,0,1,12,10.11V12a0,0,0,0,1,0,0H5.32a0,0,0,0,1,0,0V10.11A1.91,1.91,0,0,1,7.23,8.2Z"></path><path class="cls-637b7068f95e86b59c579dfd-1" d="M13.91,8.2h2.86a1.91,1.91,0,0,1,1.91,1.91V12a0,0,0,0,1,0,0H12a0,0,0,0,1,0,0V10.11A1.91,1.91,0,0,1,13.91,8.2Z"></path><line class="cls-637b7068f95e86b59c579dfd-1" x1="2.45" y1="20.61" x2="2.45" y2="17.75"></line><line class="cls-637b7068f95e86b59c579dfd-1" x1="21.55" y1="20.61" x2="21.55" y2="17.75"></line></svg>