<svg xmlns="http://www.w3.org/2000/svg" viewBox="0 0 24 24" stroke-width="1.5" width="24" height="24" color="#000000"><defs><style>.cls-637b8170f95e86b59c57a035-1{fill:none;stroke:currentColor;stroke-miterlimit:10;}</style></defs><g id="ear"><path class="cls-637b8170f95e86b59c57a035-1" d="M5.32,8.18h0A6.68,6.68,0,0,1,12,1.5h0a6.68,6.68,0,0,1,6.68,6.68h0A16.16,16.16,0,0,1,14,19.59l-1.25,1.25a5.71,5.71,0,0,1-4,1.66h0a3.37,3.37,0,0,1-3.37-3.37h0a3.34,3.34,0,0,1,1-2.39"></path><path class="cls-637b8170f95e86b59c57a035-1" d="M14.86,8.18h0A2.86,2.86,0,0,0,12,5.32h0A2.86,2.86,0,0,0,9.14,8.18v5.73a1.91,1.91,0,0,0,1.91,1.91h0A1.91,1.91,0,0,0,13,13.91h0A1.9,1.9,0,0,0,11.05,12H9.14"></path></g></svg>