<svg id="Layer_1" data-name="Layer 1" xmlns="http://www.w3.org/2000/svg" viewBox="0 0 24 24" stroke-width="1.5" width="24" height="24" color="#000000"><defs><style>.cls-637b8b31f95e86b59c57a2a9-1{fill:none;stroke:currentColor;stroke-miterlimit:10;}</style></defs><path class="cls-637b8b31f95e86b59c57a2a9-1" d="M.5,3.4c1.92,0,1.92.95,3.83.95S6.25,3.4,8.16,3.4s1.92.95,3.83.95,1.92-.95,3.83-.95,1.92.95,3.84.95,1.92-.95,3.84-.95"></path><path class="cls-637b8b31f95e86b59c57a2a9-1" d="M.5,9.15c1.92,0,1.92.95,3.83.95s1.92-.95,3.83-.95,1.92.95,3.83.95,1.92-.95,3.83-.95,1.92.95,3.84.95,1.92-.95,3.84-.95"></path><path class="cls-637b8b31f95e86b59c57a2a9-1" d="M.5,14.9c1.92,0,1.92.95,3.83.95s1.92-.95,3.83-.95,1.92.95,3.83.95,1.92-.95,3.83-.95,1.92.95,3.84.95,1.92-.95,3.84-.95"></path><path class="cls-637b8b31f95e86b59c57a2a9-1" d="M.5,20.65c1.92,0,1.92,1,3.83,1s1.92-1,3.83-1,1.92,1,3.83,1,1.92-1,3.83-1,1.92,1,3.84,1,1.92-1,3.84-1"></path></svg>