<svg width="148" height="169" viewBox="0 0 148 169" fill="none" xmlns="http://www.w3.org/2000/svg">
<rect y="11" width="148" height="148" rx="12" fill="#00CDB8"/>
<path d="M70.677 38.1C71.636 38.1 72.5037 37.9402 73.28 37.6205C74.102 37.2552 74.7642 36.9127 75.2665 36.593C75.8145 36.2733 76.157 36.1135 76.294 36.1135C76.431 36.1135 76.5223 36.182 76.568 36.319C76.6593 36.4103 76.7735 36.7528 76.9105 37.3465L82.6645 59.746C82.7102 59.9743 82.7102 60.157 82.6645 60.294C82.6188 60.3853 82.5503 60.431 82.459 60.431C82.3677 60.4767 82.2763 60.4767 82.185 60.431C82.0937 60.3853 81.9795 60.2712 81.8425 60.0885C79.0568 54.7455 76.4767 50.567 74.102 47.553C71.773 44.4933 69.444 42.347 67.115 41.114C64.8317 39.881 62.3885 39.2645 59.7855 39.2645H41.496V130.438C41.496 130.986 41.77 131.397 42.318 131.671C42.866 131.945 43.688 132.128 44.784 132.219L53.3465 133.178C53.5748 133.178 53.7347 133.224 53.826 133.315C53.963 133.361 54.0315 133.452 54.0315 133.589C54.0315 133.68 53.9858 133.772 53.8945 133.863C53.8032 133.954 53.6433 134 53.415 134H18.48C18.2973 134 18.1603 133.954 18.069 133.863C17.9777 133.772 17.932 133.68 17.932 133.589C17.932 133.361 18.1603 133.224 18.617 133.178L24.9875 132.219C25.8095 132.082 26.4032 131.899 26.7685 131.671C27.1795 131.397 27.385 130.986 27.385 130.438V41.662C27.385 41.114 27.1795 40.703 26.7685 40.429C26.4032 40.155 25.8095 39.9723 24.9875 39.881L18.617 38.922C18.1603 38.8763 17.932 38.7393 17.932 38.511C17.932 38.374 17.9777 38.2827 18.069 38.237C18.1603 38.1457 18.2973 38.1 18.48 38.1H70.677ZM37.523 85.913H57.5935C61.2012 85.913 63.8955 85.1367 65.6765 83.584C67.4575 81.9857 68.3708 79.0858 68.4165 74.8845C68.4622 74.6562 68.5078 74.5192 68.5535 74.4735C68.6448 74.3822 68.7362 74.3365 68.8275 74.3365C69.1015 74.2908 69.3298 74.542 69.5125 75.09L75.061 97.01C75.1523 97.1927 75.1523 97.3525 75.061 97.4895C75.0153 97.6265 74.9468 97.7178 74.8555 97.7635C74.7642 97.7635 74.65 97.7635 74.513 97.7635C74.4217 97.7178 74.3075 97.6265 74.1705 97.4895C72.3895 94.7952 70.7912 92.6945 69.3755 91.1875C68.0055 89.6805 66.5213 88.6302 64.923 88.0365C63.3703 87.3972 61.4752 87.0775 59.2375 87.0775H37.523V85.913Z" fill="black"/>
<path d="M82.6 134L94.2 61H110.2C114.733 61 118.533 61.9333 121.6 63.8C124.667 65.6 126.867 68.1667 128.2 71.5C129.6 74.7667 129.933 78.6 129.2 83L124.6 112C123.933 116.4 122.367 120.267 119.9 123.6C117.5 126.867 114.467 129.433 110.8 131.3C107.2 133.1 103.133 134 98.6 134H82.6ZM88.3 129.4H99.3C104.567 129.4 109.033 127.833 112.7 124.7C116.433 121.5 118.733 117.267 119.6 112L124.2 83C125 77.8 124.033 73.6 121.3 70.4C118.567 67.2 114.6 65.6 109.4 65.6H98.4L88.3 129.4Z" fill="black"/>
</svg>
