<svg xmlns="http://www.w3.org/2000/svg" width="123" height="169" fill="none" viewBox="0 0 123 169"><path fill="url(#a)" d="M57.677 38.1q1.439 0 2.603-.48 1.233-.547 1.986-1.027.823-.48 1.028-.48t.274.206q.137.137.343 1.027l5.754 22.4q.068.342 0 .548-.07.137-.206.137a.29.29 0 0 1-.274 0q-.137-.069-.343-.342-4.177-8.015-7.74-12.536-3.494-4.59-6.987-6.439a15.2 15.2 0 0 0-7.33-1.85H28.496v91.174q0 .822.822 1.233t2.466.548l8.563.959q.342 0 .479.137.206.069.206.274 0 .137-.137.274-.138.137-.48.137H5.48q-.274 0-.411-.137t-.137-.274q0-.342.685-.411l6.37-.959q1.233-.206 1.781-.548.617-.411.617-1.233V41.662q0-.822-.617-1.233-.548-.411-1.78-.548l-6.371-.959q-.685-.069-.685-.411 0-.205.137-.274.136-.137.411-.137zM24.523 85.913h20.07q5.412 0 8.083-2.329 2.673-2.397 2.74-8.7.069-.342.138-.41.136-.138.273-.138.412-.068.686.754l5.548 21.92q.137.275 0 .48-.068.205-.206.273h-.342a1.5 1.5 0 0 1-.343-.273q-2.67-4.042-4.794-6.302-2.055-2.262-4.453-3.151-2.33-.96-5.686-.96H24.524z"/><path fill="url(#b)" d="m69.6 134 11.6-73h16q6.8 0 11.4 2.8 4.6 2.7 6.6 7.7 2.1 4.9 1 11.5l-4.6 29q-1 6.6-4.7 11.6-3.6 4.9-9.1 7.7-5.4 2.7-12.2 2.7zm5.7-4.6h11q7.9 0 13.4-4.7 5.6-4.8 6.9-12.7l4.6-29q1.2-7.8-2.9-12.6t-11.9-4.8h-11z"/><defs><linearGradient id="a" x1="9.366" x2="84.39" y1="137" y2="95.079" gradientUnits="userSpaceOnUse"><stop stop-color="#2f00ff" style="stop-color:#2f00ff;stop-color:color(display-p3 .1833 0 1);stop-opacity:1"/><stop offset="1" stop-color="#0f4" style="stop-color:#0f4;stop-color:color(display-p3 0 1 .2667);stop-opacity:1"/></linearGradient><linearGradient id="b" x1="70.805" x2="131.333" y1="139.006" y2="102.922" gradientUnits="userSpaceOnUse"><stop stop-color="#2f00ff" style="stop-color:#2f00ff;stop-color:color(display-p3 .1833 0 1);stop-opacity:1"/><stop offset="1" stop-color="#0f4" style="stop-color:#0f4;stop-color:color(display-p3 0 1 .2667);stop-opacity:1"/></linearGradient></defs></svg>